<?xml version="1.0" encoding="UTF-8"?>
<svg id="Layer_1" data-name="Layer 1" xmlns="http://www.w3.org/2000/svg" viewBox="0 0 98.72 98.76">
  <defs>
    <style>
      .cls-1 {
        fill: #1f1a55;
        stroke-width: 0px;
      }
    </style>
  </defs>
  <path class="cls-1" d="M29.01,54.79c.08.97.21,1.93.45,2.88.09.36.18.72.29,1.08.07.23,0,.3-.22.32-.79.05-1.51.31-2.16.77-.21.15-.32.18-.43-.12-.83-2.34-1.37-4.72-1.44-7.18-.02-.79-.67-1.43-1.46-1.41-.8.02-1.43.7-1.39,1.5l.04.71c.3,3.4,1.17,6.72,2.57,9.83.18.39.3.8.37,1.24.14.89.63,1.68,1.3,2.26.49.42.98.84,1.36,1.36.68.91,1.39,1.79,2.23,2.62,1.47,1.54,3.15,2.85,4.98,3.97.77.47,1.78.16,2.13-.68h0c.28-.68.01-1.45-.61-1.82-1.93-1.16-3.59-2.66-5.11-4.34-.21-.23-.13-.3.09-.43.48-.29.97-.57,1.31-1.03.2-.28.32-.28.56-.03.58.62,1.21,1.18,1.87,1.71.69.55,1.7.36,2.16-.39.38-.63.25-1.44-.33-1.9-1.48-1.18-2.67-2.63-3.62-4.31-1.22-2.15-1.83-4.45-2.02-6.85-.06-.75-.69-1.32-1.43-1.33-.86,0-1.54.72-1.47,1.57ZM31.02,62.43c.59.63.55,1.52-.08,2.11-.67.62-1.56.58-2.18-.11-.57-.63-.51-1.5.15-2.1.64-.59,1.5-.55,2.1.1Z"/>
  <path class="cls-1" d="M60.03,21.88c-.68,2.47-.67,4.9.2,7.26.42,1.14.84,2.26.92,3.65.08,1.35.72,2.17,1.46,2.07.8-.12,1.28-1.05,1.25-2.46-.03-1.72-.44-3.25-1.02-4.67-.32-.78-.5-1.61-.5-2.56,0-1.08.28-1.94.65-2.78.57-1.31.89-2.74.88-3.7-.01-2.14-.18-3.58-.67-4.88-.47-1.23-.88-2.45-.93-3.95-.03-.85-.56-1.57-1.08-1.71-.56-.15-1.13.27-1.43,1.05-.26.71-.21,1.46-.16,2.22.09,1.43.52,2.65.98,3.85.68,1.74.66,3.47-.06,5.18-.19.45-.36.92-.5,1.41Z"/>
  <path class="cls-1" d="M45.75,20.63c-.59,1.37-.88,2.91-.9,4.59.03,1.27.11,2.55.55,3.67.51,1.3.96,2.58,1.05,4.18.09,1.62,1.39,2.32,2.19,1.28.51-.66.54-1.55.47-2.49-.11-1.52-.49-2.88-1.01-4.16-.66-1.65-.68-3.31,0-4.98.35-.84.7-1.68.86-2.68.39-2.47.15-4.78-.73-6.9-.45-1.09-.71-2.23-.59-3.54.09-.97.44-1.72.76-2.5.52-1.26.76-2.63.73-4.12-.02-1.27-.57-2.19-1.31-2.27-.71-.07-1.32.73-1.4,2-.07,1.11-.31,2.08-.67,3.02-1.19,3.07-1.26,6.17.01,9.21.81,1.93.82,3.77-.01,5.68Z"/>
  <path class="cls-1" d="M57.89,12.82c-.07-.4-.13-.82-.16-1.26v-.05c-.04-.51-.08-1.1,0-1.73-2.6-.53-5.27-.85-8.01-.92-.11.3-.18.6-.21.91-.06.69.01,1.35.23,2.05,2.79.06,5.52.41,8.16,1Z"/>
  <path class="cls-1" d="M57.43,23.11c-2.3-.66-4.63-1.1-6.99-1.27-.18.55-.38,1.06-.57,1.52l-.03.08c-.18.43-.28.85-.33,1.28,1.93.08,3.87.36,5.83.85.81.2,1.61.45,2.39.73-.08-1.01-.04-2.03.12-3.07-.14-.04-.27-.09-.41-.13Z"/>
  <path class="cls-1" d="M35.72,27.06c.06.15.12.31.18.47.5-.24,1.01-.46,1.53-.67,1.83-.73,3.67-1.28,5.53-1.64h0c.02-1.08.13-2.1.34-3.05-2.74.44-5.38,1.23-7.91,2.38-.06.41-.06.86-.01,1.36.04.36.15.68.34,1.16Z"/>
  <path class="cls-1" d="M31.36,87.82c4.05,1.55,9.29-.06,11.75-3.62.16-.23.32-.32.61-.28,1.52.22,3.05.36,4.59.34,7.32-.08,13.87-2.38,19.58-6.96,5.72-4.59,9.37-10.47,10.89-17.65.1-.46.23-.41.56-.25.94.48,1.89.94,2.86,1.37.99.45,1.91.16,2.28-.74.51-1.24.89-2.53.89-3.88-.03-4.62-2.05-8.03-6.28-10.03-.29-.14-.45-.3-.53-.63-.6-2.47-1.49-4.83-2.67-7.09-2.47-4.72-5.97-8.53-10.34-11.52-.41-.28-.82-.54-1.25-.8.06.32.15.62.28.93.49,1.2.82,2.37,1,3.53,3.92,2.96,6.82,6.8,8.81,11.44.37.85.64,1.75.96,2.62.1.26.06.44-.17.65-.64.6-.83,1.44-1.03,2.25-.81,3.29-.26,6.31,1.84,9,.25.32.31.62.23,1.03-.56,3.01-1.47,5.9-2.88,8.62-2.43,4.68-5.97,8.3-10.44,11.06-1.36.84-2.8,1.54-4.27,2.17-.37.16-.49.1-.62-.28-.43-1.33-.76-2.69-1.17-4.02-.81-2.62-1.32-5.29-1.68-8-.39-2.89-1.21-5.65-3.06-7.99-1.72-2.17-3.89-3.62-6.65-4.12-.68-.12-1.23.02-1.64.59-.41.56-.32,1.13,0,1.7,1.16,2.11,1.64,4.44,2.12,6.77.4,1.95.48,3.94.91,5.89.39,1.74,1.1,3.33,2,4.84,1.4,2.35,3.33,4.19,5.6,5.68.06.04.14.06.16.22-3.34.76-6.69.87-10.08.45-.22-.03-.39-.17-.58-.28-2.28-1.41-4.65-2.61-7.41-2.55-.94.02-1.68-.29-2.43-.74-6.98-4.13-11.4-10.18-13.47-17.99-.78-2.96-.86-5.98-.62-9.01.05-.68.15-1.36.2-2.04.03-.34.12-.43.45-.26.79.4,1.6.76,2.4,1.14,1.25.58,2.16.23,2.62-1.07.61-1.74.96-3.53.62-5.39l-1.32-3.69c-.12-.23-.24-.48-.42-.67-.39-.4-.33-.71-.02-1.16,1.62-2.31,3.45-4.37,5.52-6.12-.11-.39-.24-.78-.37-1.19-.08-.26-.17-.52-.25-.78-.11-.35-.2-.7-.28-1.05-1.55,1.17-2.98,2.47-4.27,3.95-.95,1.09-1.82,2.23-2.67,3.4-.11.16-.19.32-.43.15-1.19-.83-2.54-1.38-3.85-1.98-1-.46-1.85-.11-2.31.87-.06.13-.13.25-.17.38-1.25,3.91-.75,7.5,1.96,10.68.23.27.28.51.21.84-.64,3.29-.92,6.59-.47,9.94.43,3.24,1.18,6.38,2.54,9.36,2.54,5.58,6.38,10.05,11.55,13.36.19.12.21.21.02.33-.12.08-.24.15-.35.22-1.59,1-2.87,2.31-3.79,3.96-.63,1.13-.32,2.04.85,2.6.55.26,1.1.52,1.64.78,0,0,0,.01,0,.02.58.23,1.15.47,1.73.7ZM76.82,48.73c.04-.33.17-.34.41-.2.22.12.45.21.67.32,3.24,1.53,4.97,4.68,4.46,8.15-.08.51-.07.5-.56.29-1.84-.78-3.34-1.94-4.26-3.76-.76-1.52-.94-3.12-.72-4.79ZM54.09,76.31c-.21.02-.32-.15-.44-.27-2.42-2.33-3.93-5.14-4.3-8.5-.3-2.69-.73-5.35-1.45-7.96-.04-.16-.13-.32-.02-.54,1.29.92,2.18,2.11,2.89,3.45.86,1.64,1.37,3.4,1.58,5.23.33,2.84.83,5.65,1.75,8.36.02.07.07.14,0,.23ZM18.59,42.24c-.78-1.53-.97-3.15-.74-4.84.04-.27.11-.36.37-.21.23.13.47.23.71.34,3.24,1.53,4.96,4.68,4.46,8.15-.05.38-.12.49-.53.31-1.83-.8-3.35-1.93-4.27-3.75ZM30.71,83.72c2.12-2.3,4.73-2.97,7.74-2.25.47.11.91.31,1.34.53.08.04.17.08.25.12q.82.39.16,1.06c-2.26,2.3-5.7,2.91-8.62,1.54-.25-.12-.51-.24-.76-.36-.46-.22-.47-.25-.11-.64Z"/>
  <path class="cls-1" d="M31.25,28.75c.45,1.45.97,2.8,1.08,4.48.08,1.19.95,1.85,1.69,1.51.73-.34,1.07-1.36.96-2.75-.12-1.54-.47-2.94-1-4.24-.21-.52-.41-1.04-.47-1.67-.13-1.19-.01-2.29.42-3.3.63-1.46,1.1-3.03,1.06-4.86-.02-1.52-.23-2.97-.73-4.28-.45-1.16-.83-2.34-.87-3.75-.02-.87-.58-1.63-1.11-1.74-.61-.14-1.14.32-1.42,1.19-.17.53-.17,1.09-.14,1.66.09,1.39.37,2.68.84,3.86.22.56.44,1.13.54,1.78.23,1.43,0,2.68-.5,3.91-1.05,2.61-1.23,5.39-.36,8.2Z"/>
  <path class="cls-1" d="M36.28,13.72c2.2-.69,4.47-1.21,6.8-1.53-.13-.98-.16-1.97-.07-2.96-2.61.34-5.15.91-7.6,1.68.12.67.34,1.32.63,2.06.09.24.18.49.25.75Z"/>
  <path class="cls-1" d="M64.47,11.72c.14.48.31.95.49,1.42.25.67.44,1.37.56,2.18,14.44,6.34,24.78,20.63,25.01,37.63.26,23.74-18.73,42.22-41.42,42.39-23.3.18-41.58-18.42-42.09-40.76-.39-16.81,9.17-31.35,23.08-38.35-.07-.22-.16-.45-.25-.68-.27-.69-.49-1.42-.65-2.16C14.6,20.49,4.46,35.19,4.07,52.45c-.58,25.85,19.87,45.51,43.93,45.83,25.25.34,45.09-19.54,45.47-43.94.31-19.65-11.85-36.19-29-42.63Z"/>
  <circle class="cls-1" cx="64.96" cy="64.13" r="3.25"/>
  <path class="cls-1" d="M41.91,33.36l-.76.66c-.19.16-4.64,4.09-4.64,9.54,0,6.55,4.21,7.06,5.5,7.06,2.6,0,5.41-2.83,5.46-7.05.06-6.3-4.53-9.51-4.72-9.64l-.83-.57ZM44.86,43.55c-.03,2.93-1.87,4.46-2.85,4.46-1.92,0-2.89-1.5-2.89-4.45s1.87-5.54,2.97-6.77c1.07,1.06,2.81,3.32,2.77,6.76Z"/>
  <path class="cls-1" d="M54.98,50.84c-.62.74-1,1.69-1,2.73,0,2.33,1.9,4.22,4.22,4.22s4.22-1.9,4.22-4.22c0-.71-.18-1.38-.49-1.96,1.54-.12,3.26-.23,4.97-.33,2.63-.15,3.93-1.36,4.55-2.35,1.08-1.71.93-4.01.31-5.52-.54-1.32-2.34-4.18-7.28-2.2-5.66,2.26-9.01,8.68-9.15,8.95l-.35.69ZM65.45,43.62c3.07-1.23,3.65.17,3.9.77.29.7.51,2.16-.1,3.14-.43.68-1.27,1.07-2.49,1.13-2.85.16-5.76.38-7.77.55,1.32-1.86,3.57-4.44,6.46-5.6ZM58.2,51.95c.89,0,1.61.72,1.61,1.61s-.72,1.61-1.61,1.61-1.61-.72-1.61-1.61.72-1.61,1.61-1.61Z"/>
</svg>